<?xml version="1.0" encoding="UTF-8" standalone="no"?>
<!-- Created with Inkscape (http://www.inkscape.org/) -->

<svg
   width="126.16595mm"
   height="29.289604mm"
   viewBox="0 0 126.16595 29.289604"
   version="1.1"
   id="svg1"
   xml:space="preserve"
   xmlns="http://www.w3.org/2000/svg"
   xmlns:svg="http://www.w3.org/2000/svg"><defs
     id="defs1" /><g
     id="layer1"
     transform="translate(-14.043169,-145.9196)"><ellipse
       style="fill:#4b0790;fill-opacity:1;stroke:none;stroke-width:0.0107764"
       id="path6"
       ry="2.1093922"
       rx="2.1010532"
       cy="160.75192"
       cx="28.536238" /><path
       d="m 29.021542,145.91959 c -7.775222,0 -14.111111,6.33589 -14.111111,14.11111 0,2.20134 0.493889,4.318 1.467556,6.27945 0.352778,0.69144 1.185333,0.98778 1.890889,0.635 0.691444,-0.35278 0.987777,-1.19945 0.635,-1.89089 -0.776111,-1.56633 -1.171223,-3.25967 -1.171223,-5.02356 0,-6.223 5.065889,-11.28889 11.288889,-11.28889 6.223,0 11.288889,5.06589 11.288889,11.28889 0,6.223 -5.065889,11.28889 -11.288889,11.28889 -1.763889,0 -3.457222,-0.39511 -5.023555,-1.17122 -0.705556,-0.35278 -1.538111,-0.0564 -1.890889,0.635 -0.352778,0.69144 -0.05645,1.53811 0.635,1.89089 1.961444,0.97367 4.078111,1.46755 6.279444,1.46755 7.775222,0 14.111111,-6.33588 14.111111,-14.11111 0,-7.77522 -6.335889,-14.11111 -14.111111,-14.11111 z"
       id="path1"
       style="fill:#4b0790;fill-opacity:1;stroke-width:1.41111" /><path
       d="m 26.908589,165.93075 c -0.607406,-0.21198 -1.273215,0.10599 -1.495152,0.71834 -0.210256,0.61236 0.105124,1.2836 0.712534,1.50735 0.876066,0.30619 1.798853,0.45927 2.733323,0.45927 4.508817,0 8.176612,-3.69771 8.176612,-8.24332 0,-4.54562 -3.667795,-8.24332 -8.176612,-8.24332 -4.508816,0 -8.17661,3.6977 -8.17661,8.24332 0,0.94209 0.151851,1.86064 0.467235,2.74385 0.210256,0.61236 0.887745,0.93031 1.495152,0.71833 0.607404,-0.21197 0.922788,-0.88321 0.712533,-1.50734 -0.221936,-0.62413 -0.338745,-1.2836 -0.338745,-1.95484 0,-3.25021 2.616515,-5.8881 5.840435,-5.8881 3.223921,0 5.840436,2.63789 5.840436,5.8881 0,3.25021 -2.616515,5.8881 -5.840436,5.8881 -0.665809,0 -1.319938,-0.11777 -1.950705,-0.32974 z"
       id="path2"
       style="fill:#4b0790;fill-opacity:1;stroke-width:1.17284" /><path
       d="m 28.054935,162.19891 c -0.156429,-0.0542 -0.3279,0.0271 -0.385057,0.1835 -0.05415,0.15643 0.02707,0.3279 0.183504,0.38506 0.22562,0.0782 0.463271,0.11732 0.703932,0.11732 1.161188,0 2.105781,-0.94459 2.105781,-2.10578 0,-1.16119 -0.944593,-2.10577 -2.105781,-2.10577 -1.161187,0 -2.10578,0.94458 -2.10578,2.10577 0,0.24066 0.03911,0.47531 0.12033,0.70093 0.05415,0.15643 0.228628,0.23765 0.385057,0.1835 0.156429,-0.0541 0.237652,-0.22562 0.183504,-0.38506 -0.05716,-0.15943 -0.08724,-0.3279 -0.08724,-0.49937 0,-0.83027 0.673849,-1.50413 1.504128,-1.50413 0.830279,0 1.504129,0.67386 1.504129,1.50413 0,0.83028 -0.67385,1.50413 -1.504129,1.50413 -0.17147,0 -0.339933,-0.0301 -0.502379,-0.0842 z"
       id="path2-6"
       style="fill:#4b0790;fill-opacity:1;stroke-width:0.300825" /><path
       d="m 15.45428,169.56477 c -0.776111,0 -1.411111,0.635 -1.411111,1.41111 0,0.77611 0.635,1.41111 1.411111,1.41111 h 1.411111 v 1.41111 c 0,0.77611 0.635,1.41111 1.411112,1.41111 0.776111,0 1.411111,-0.635 1.411111,-1.41111 v -2.24366 l 9.468555,-9.46856 c 0.550333,-0.55033 0.550333,-1.43933 0,-1.98967 -0.550333,-0.55033 -1.439333,-0.55033 -1.989667,0 l -9.468555,9.46856 z"
       id="path3"
       style="fill:#4b0790;fill-opacity:1;stroke-width:1.41111" /><text
       xml:space="preserve"
       style="font-style:normal;font-variant:normal;font-weight:bold;font-stretch:normal;font-size:21.7661px;font-family:'Malgun Gothic';-inkscape-font-specification:'Malgun Gothic, Bold';font-variant-ligatures:normal;font-variant-caps:normal;font-variant-numeric:normal;font-variant-east-asian:normal;fill:#000000;fill-opacity:1;stroke:#050505;stroke-width:0.0102832"
       x="46.959892"
       y="170.05667"
       id="text2"
       transform="scale(1.0283318,0.97244878)"><tspan
         id="tspan2"
         style="font-style:normal;font-variant:normal;font-weight:bold;font-stretch:normal;font-size:21.7661px;font-family:'Malgun Gothic';-inkscape-font-specification:'Malgun Gothic, Bold';font-variant-ligatures:normal;font-variant-caps:normal;font-variant-numeric:normal;font-variant-east-asian:normal;fill:#000000;stroke-width:0.0102832"
         x="46.959892"
         y="170.05667">goalsync</tspan></text></g></svg>
